<?xml version="1.0" encoding="UTF-8"?>
<svg id="Calque_2" data-name="Calque 2" xmlns="http://www.w3.org/2000/svg" viewBox="0 0 115.56 95.6">
  <defs>
    <style>
      .cls-1 {
        fill: #fff;
      }

      .cls-2 {
        fill: #79b23d;
      }

      .cls-3 {
        fill: #1d1d1b;
      }
    </style>
  </defs>
  <g id="Calque_1-2" data-name="Calque 1">
    <g>
      <path class="cls-2" d="m14.7,70.66c0,.16-.09.24-.26.24-.31,0-1.51-.06-3.62-.18-.05,2.03-.07,3.45-.07,4.25,0,.95.04,2.37.11,4.27s.11,3.33.11,4.27c0,.15-.04.25-.11.29-.02.02-.14.04-.34.06-.48.06-1.19.1-2.12.1-1.04,0-1.76-.03-2.18-.1-.22-.04-.34-.16-.34-.37,0-.95.04-2.37.12-4.26.08-1.89.12-3.31.12-4.26,0-.63-.03-2.02-.1-4.19-1.61.16-2.88.24-3.84.24-.13,0-.19-.04-.19-.12,0-.1.06-.41.17-.93.13-.56.2-.9.22-1.02.02-.38.05-.75.08-1.13.06-.6.15-.9.29-.9.02,0,.07,0,.17.01,1.3.17,3.22.25,5.76.25.72,0,2.05-.08,4-.23,1.04-.08,1.57-.12,1.58-.12.16,0,.25.01.28.03.02.02.04.1.05.23,0,.22,0,.52-.02.9-.02.43-.02.73-.02.9,0,.2.03.5.08.88.05.39.08.68.08.87Z"/>
      <path class="cls-2" d="m30.33,83.75c0,.06-.08.1-.24.12-.3.05-1.07.07-2.3.07-1.05,0-1.77-.02-2.14-.07-.18-.02-.28-.04-.3-.06-.05-.02-.1-.1-.17-.24-.12-.31-.3-.78-.53-1.4-.31-.8-.8-1.99-1.47-3.55-.14-.31-.48-.49-1-.52.24.02-.17.02-1.24.02-.12,0-.18.2-.18.61,0,.55.05,1.36.15,2.44.1,1.08.15,1.9.15,2.44,0,.14-.04.22-.11.24-.11,0-.22.02-.34.02-.47.03-1.21.05-2.21.05-1.15,0-1.84-.02-2.07-.07-.23-.05-.35-.17-.35-.37,0-.88.04-2.21.13-4,.08-1.78.13-3.12.13-4.01,0-3.39-.08-6.04-.23-7.94v-.17c-.02-.14.11-.23.37-.28.26-.05,1.49-.1,3.68-.14,1.48-.03,2.67-.05,3.55-.05,1.83,0,3.32.41,4.48,1.24,1.31.93,1.96,2.27,1.96,4.03,0,1.17-.17,2.11-.51,2.8-.34.7-.96,1.38-1.87,2.03-.18.13-.28.25-.28.36,0,0,.49,1,1.47,3.02.98,2.02,1.47,3.14,1.47,3.35Zm-5.06-10.8c0-.98-.32-1.66-.96-2.03-.5-.29-1.28-.43-2.33-.43-.76,0-1.17.12-1.22.35-.05.27-.07,1.06-.07,2.36,0,.18,0,.46.01.82,0,.36.01.63.01.81,0,.04.13.08.38.12.49.07,1,.11,1.54.11,1.76,0,2.64-.7,2.64-2.09Z"/>
      <path class="cls-2" d="m47.57,83.57c0,.14-.1.24-.3.3-.24.06-.99.1-2.24.1-1.15,0-1.89-.03-2.21-.1-.27-.06-.45-.24-.52-.54-.27-1.16-.49-1.77-.64-1.85-.13-.06-1.2-.08-3.23-.08-1.36,0-2.09.04-2.18.11-.14.13-.29.56-.46,1.29-.15.67-.34,1.03-.55,1.08-.27.06-1.19.1-2.74.1-1.23,0-1.84-.12-1.84-.35,0-.21.91-2.77,2.72-7.69,1.97-5.32,3.03-8.25,3.2-8.77.1-.3.21-.46.34-.46.22,0,.55.02,1,.06s.79.06,1.02.06.54-.01.96-.04c.42-.03.74-.04.94-.04.15,0,.29.13.42.4.39.84,1.54,3.73,3.44,8.67,1.91,4.97,2.86,7.56,2.86,7.78Zm-8.53-10.97c-.17.35-.45,1.12-.85,2.3-.43,1.25-.65,1.99-.65,2.2,0,.14.24.23.72.24.25.02.66.02,1.23.02.53,0,.82-.06.88-.19.02-.04.02-.1.02-.17,0-.26-.18-.99-.55-2.19-.36-1.16-.63-1.89-.79-2.21Z"/>
      <path class="cls-2" d="m53.68,74.97c0,.95.02,2.37.07,4.27s.07,3.33.07,4.27c0,.16-.04.26-.11.3-.02,0-.12.02-.31.05-.52.06-1.22.1-2.09.1-1.17,0-1.92-.03-2.24-.1-.23-.05-.35-.17-.35-.37,0,.13.04-.58.11-2.12.14-3.25.22-5.38.22-6.4,0-.86-.03-2.15-.08-3.86-.06-1.72-.08-3-.08-3.86,0-.18.09-.26.28-.26.25,0,.62.01,1.12.04s.88.04,1.13.04.62-.01,1.1-.04.85-.04,1.1-.04c.23,0,.35.09.35.26,0,.86-.05,2.15-.14,3.86-.09,1.72-.14,3.01-.14,3.86Z"/>
      <path class="cls-2" d="m67.86,70.66c0,.16-.09.24-.26.24-.31,0-1.51-.06-3.62-.18-.05,2.03-.07,3.45-.07,4.25,0,.95.04,2.37.11,4.27s.11,3.33.11,4.27c0,.15-.04.25-.11.29-.02.02-.14.04-.34.06-.48.06-1.19.1-2.12.1-1.04,0-1.76-.03-2.18-.1-.22-.04-.34-.16-.34-.37,0-.95.04-2.37.12-4.26.08-1.89.12-3.31.12-4.26,0-.63-.03-2.02-.1-4.19-1.61.16-2.88.24-3.84.24-.13,0-.19-.04-.19-.12,0-.1.06-.41.17-.93.13-.56.2-.9.22-1.02.02-.38.05-.75.08-1.13.06-.6.15-.9.29-.9.02,0,.07,0,.17.01,1.3.17,3.22.25,5.76.25.72,0,2.05-.08,4-.23,1.04-.08,1.57-.12,1.58-.12.16,0,.25.01.28.03.02.02.04.1.05.23,0,.22,0,.52-.02.9-.02.43-.02.73-.02.9,0,.2.03.5.08.88.05.39.08.68.08.87Z"/>
      <path class="cls-2" d="m81.47,80.12c0,.34-.07.98-.2,1.9-.14,1-.27,1.6-.39,1.79-.1.15-.23.23-.4.23-.07,0-.19-.01-.36-.04-.59-.08-2.29-.12-5.13-.12-.62,0-1.54,0-2.76-.01-1.22,0-2.13-.01-2.75-.01-.26,0-.4-.12-.4-.35,0-.9.05-2.25.15-4.05.1-1.8.15-3.15.15-4.05s-.05-2.62-.14-5.12c-.02-.64-.07-1.6-.13-2.88v-.17c-.03-.18.07-.28.29-.28.59,0,1.49.02,2.68.05,1.19.03,2.08.05,2.68.05s1.47-.02,2.65-.05c1.18-.03,2.06-.05,2.65-.05.42,0,.66.16.72.47.04.19.1.74.19,1.68.08.94.13,1.5.13,1.7,0,.17-.08.25-.24.25-.05,0-.13,0-.25-.01-2.13-.18-4.05-.26-5.75-.26-.42,0-.69.1-.78.3-.04.1-.06.41-.06.93s.08.91.24,1.08c.14.15.4.23.78.23.08,0,.24,0,.47-.02.23-.01.42-.02.58-.02,1.01,0,2.03-.03,3.07-.08.09,0,.31-.03.66-.06.27-.03.49-.05.65-.05.19,0,.29.09.29.28,0-.17-.07.45-.22,1.84-.06.64-.1,1.28-.1,1.93,0,.16-.12.24-.35.24l-1.08-.12c-.46-.05-1.5-.07-3.13-.07h-1.28c-.33,0-.52.08-.58.24,0,.04-.01.29-.01.75,0,.61.04,1,.12,1.18.14.31.65.49,1.54.54-.02,0,.57,0,1.76,0,.42,0,1.06-.04,1.9-.11.84-.08,1.47-.11,1.88-.11.18,0,.26.14.26.43Z"/>
      <path class="cls-2" d="m97.45,77.96c0,2.05-.24,3.44-.73,4.19-.9,1.36-3.14,2.05-6.73,2.05-1.62,0-2.87-.12-3.74-.37-1.4-.4-2.3-1.17-2.72-2.3-.21-.55-.31-1.54-.31-2.96,0-.33.01-.82.04-1.47.02-.65.04-1.14.04-1.46,0-.93-.04-2.33-.13-4.19-.09-1.86-.13-3.25-.13-4.18,0-.19.08-.29.25-.29.49,0,1.23.02,2.22.06.99.04,1.73.06,2.22.06.2,0,.3.09.3.26,0,1.06-.03,2.65-.1,4.76-.07,2.11-.1,3.7-.1,4.76,0,1.26.13,2.11.4,2.55.35.6,1.09.9,2.21.9,1.65,0,2.47-.8,2.47-2.4,0-1.16-.03-2.91-.08-5.24-.06-2.33-.08-4.07-.08-5.24,0-.25.1-.37.3-.37.47,0,1.19-.02,2.14-.06.95-.04,1.67-.06,2.14-.06.23,0,.35.1.35.29,0,.92-.04,2.31-.11,4.18-.08,1.86-.11,3.26-.11,4.19,0,.26,0,.64.01,1.16s.01.9.01,1.16Z"/>
      <path class="cls-2" d="m114.17,83.75c0,.06-.08.1-.24.12-.3.05-1.07.07-2.3.07-1.05,0-1.77-.02-2.14-.07-.18-.02-.28-.04-.3-.06-.05-.02-.1-.1-.17-.24-.12-.31-.3-.78-.53-1.4-.31-.8-.8-1.99-1.47-3.55-.14-.31-.48-.49-1-.52.24.02-.17.02-1.24.02-.12,0-.18.2-.18.61,0,.55.05,1.36.15,2.44.1,1.08.15,1.9.15,2.44,0,.14-.04.22-.11.24-.11,0-.22.02-.34.02-.47.03-1.21.05-2.21.05-1.15,0-1.84-.02-2.07-.07-.23-.05-.35-.17-.35-.37,0-.88.04-2.21.13-4,.08-1.78.13-3.12.13-4.01,0-3.39-.08-6.04-.23-7.94v-.17c-.02-.14.11-.23.37-.28.26-.05,1.49-.1,3.68-.14,1.48-.03,2.67-.05,3.55-.05,1.83,0,3.32.41,4.48,1.24,1.31.93,1.96,2.27,1.96,4.03,0,1.17-.17,2.11-.51,2.8-.34.7-.96,1.38-1.87,2.03-.18.13-.28.25-.28.36,0,0,.49,1,1.47,3.02.98,2.02,1.47,3.14,1.47,3.35Zm-5.06-10.8c0-.98-.32-1.66-.96-2.03-.5-.29-1.28-.43-2.33-.43-.76,0-1.17.12-1.22.35-.05.27-.07,1.06-.07,2.36,0,.18,0,.46.01.82,0,.36.01.63.01.81,0,.04.13.08.38.12.49.07,1,.11,1.54.11,1.76,0,2.64-.7,2.64-2.09Z"/>
    </g>
    <path class="cls-3" d="m5.56,59.07C5.56,30.23,28.94,6.85,57.78,6.85s52.22,23.38,52.22,52.22"/>
    <path class="cls-3" d="m60.44,1.97c0,1.47-1.19,5.83-2.67,5.83s-2.67-4.36-2.67-5.83,1.19-1.97,2.67-1.97,2.67.5,2.67,1.97Z"/>
    <polygon class="cls-3" points="112.78 64.82 2.78 64.82 0 60.85 115.56 60.85 112.78 64.82"/>
    <path class="cls-1" d="m57.78,11.48c-1.31-.11-2.62-.18-3.96-.18-26.57,0-45.45,21.54-45.45,48.12h7.92c0-25.24,16.77-45.93,41.49-47.94Z"/>
    <g>
      <path class="cls-1" d="m27.93,46.87v1.14c-1.97,2.19-3.78,4-5.42,5.42s-3.25,2.52-4.83,3.29-3.09,1.15-4.55,1.15c-1.27,0-2.35-.25-3.26-.76s-1.59-1.24-2.06-2.21-.69-2.11-.69-3.44c0-1.04.17-2.15.5-3.31s.82-2.34,1.45-3.53,1.41-2.42,2.33-3.68,2-2.6,3.24-3.99c1.29-1.44,2.56-2.69,3.81-3.74s2.39-1.87,3.41-2.47,1.97-1.04,2.84-1.34,1.6-.44,2.17-.44,1.08.14,1.49.42.73.69.95,1.23.33,1.16.33,1.86c0,1.32-.45,2.8-1.35,4.42s-2.03,3.19-3.38,4.7-2.63,2.75-3.86,3.7-2.11,1.43-2.65,1.43c-.36,0-.7-.14-1.01-.43s-.47-.61-.47-.98c0-.67.35-1.48,1.06-2.43s1.48-1.82,2.32-2.61,1.34-1.19,1.5-1.19c.08,0,.12.04.12.11,0,.11-.06.29-.18.54s-.18.42-.18.47c0,.09.04.14.11.14.2,0,.77-.53,1.72-1.6s1.82-2.24,2.61-3.52,1.19-2.33,1.19-3.16c0-.34-.07-.6-.22-.78s-.37-.27-.66-.27c-.82,0-2.07.67-3.74,2s-3.38,3.02-5.13,5.08-3.21,4.18-4.39,6.37-1.76,4.12-1.76,5.78c0,.96.14,1.76.43,2.41s.71,1.14,1.27,1.49,1.23.53,2.01.53c1.7,0,3.63-.66,5.78-1.99s4.53-3.28,7.12-5.85Z"/>
      <path class="cls-1" d="m29.83,43.79c1.78-1.62,3.51-2.82,5.19-3.6,1.68-.79,2.97-1.18,3.89-1.18.25,0,.47.1.69.31s.38.44.5.71.18.47.18.6c0,.21-.08.37-.25.47s-.45.22-.86.36c.08.19.19.43.32.72s.23.53.3.71.11.34.11.48c0,.28-.28.81-.85,1.57s-.97,1.33-1.2,1.7-.34.81-.34,1.34c0,.87.4,1.3,1.2,1.3s2.1-.77,3.85-2.3v1.07c-2.96,3.29-5.09,4.94-6.36,4.94-.46,0-.78-.15-.98-.45s-.29-.74-.29-1.33c0-.93.33-2.27,1-4.03-1.71,1.9-2.98,3.25-3.81,4.05s-1.52,1.2-2.06,1.2c-.26,0-.58-.22-.97-.67s-.73-1.02-1.03-1.73-.45-1.44-.45-2.21c0-.55.05-1.01.16-1.38s.31-.75.62-1.13.79-.9,1.46-1.53Zm8.42-1.93c-3.05,1.39-5.22,2.58-6.51,3.55s-1.94,1.97-1.94,3.01c0,.38.06.68.19.92s.3.36.53.36c.13,0,.36-.08.69-.25,1.23-.73,2.36-1.67,3.38-2.84s2.24-2.75,3.67-4.75Z"/>
      <path class="cls-1" d="m56.35,48.11l-5.84,4.8c-1.64,2.84-3.13,4.95-4.48,6.35s-2.35,2.1-3.01,2.1c-.35,0-.53-.22-.53-.65,0-.84.43-1.92,1.28-3.23.34-.52.73-1.02,1.17-1.51s.86-.92,1.25-1.27.91-.8,1.56-1.34,1.08-.9,1.32-1.1c1.17-2.39,2.02-4.22,2.53-5.48-1.1,1.17-2.06,2.13-2.88,2.88s-1.57,1.33-2.26,1.73-1.3.61-1.85.61c-.6,0-1.15-.48-1.65-1.43s-.76-1.94-.76-2.94c0-.47.11-.96.33-1.48s.56-1.07,1.02-1.65,1.05-1.19,1.77-1.8,1.55-1.22,2.51-1.8c1.82-1.14,3.23-1.71,4.24-1.71.75,0,1.12.28,1.12.83,0,.76-.81,1.51-2.44,2.23-1,.43-1.98,1.01-2.96,1.72s-1.77,1.47-2.37,2.28-.91,1.53-.91,2.17c0,.32.08.57.23.76s.35.28.6.28c.41,0,.88-.19,1.41-.56s1.31-1.04,2.34-1.99c.47-.43,1.09-1.13,1.87-2.1s1.42-1.71,1.93-2.21.97-.76,1.38-.76c.23,0,.42.07.57.22s.22.36.22.64c0,.54-.21,1.32-.64,2.35s-1.2,2.7-2.31,5.04l4.25-3.09v1.14Z"/>
      <path class="cls-1" d="m64.63,46.94v1.28c-1.14,1.46-2.2,2.57-3.18,3.31s-1.82,1.12-2.51,1.12c-.96,0-1.68-.5-2.14-1.51s-.7-2.11-.7-3.3c0-.46.05-.89.14-1.31s.21-.76.33-1.03.37-.69.72-1.27c1.66-2.59,3.19-3.88,4.57-3.88.71,0,1.07.28,1.07.83,0,.38-.23.96-.69,1.76s-.88,1.37-1.24,1.71c-1.02.98-1.68,1.67-2,2.06s-.47.83-.47,1.32c0,.42.16.77.47,1.05s.73.42,1.23.42c.55,0,1.16-.2,1.82-.61s1.52-1.05,2.58-1.94Zm-1.2-7.86c-.29,0-.57-.11-.83-.33s-.4-.5-.4-.84c0-.52.25-1.09.74-1.72s1-.95,1.53-.95c.35,0,.64.11.88.33s.35.53.35.94c0,.5-.24,1.06-.72,1.67s-1,.91-1.55.91Z"/>
      <path class="cls-1" d="m75.77,46.9v1.18c-.77.7-1.39,1.17-1.86,1.41s-1.14.33-2.02.28c-1.52,1.8-2.87,2.71-4.03,2.71-.66,0-1.25-.22-1.79-.65s-.97-1.03-1.29-1.78-.48-1.59-.48-2.51c0-.75.25-1.58.75-2.5s1.14-1.77,1.93-2.56,1.64-1.43,2.54-1.92,1.74-.73,2.51-.73c.55,0,.98.08,1.3.25s.47.41.47.71c0,.23-.13.5-.4.81.45.09.75.25.91.47s.25.61.25,1.19-.13,1.27-.4,2.13-.62,1.66-1.08,2.41l.32.32h.26c.2,0,.4-.05.59-.15s.37-.21.52-.32.49-.36,1-.75Zm-3.62-4.62c-.97.59-1.8,1.12-2.5,1.59s-1.28.96-1.76,1.44-.8.98-.97,1.47c-.29,1.31-.44,2.02-.44,2.13,0,.77.54,1.16,1.62,1.16.5,0,1.35-.43,2.53-1.3-.2-.55-.3-1.08-.3-1.58,0-.74.15-1.49.46-2.26s.76-1.65,1.35-2.65Z"/>
      <path class="cls-1" d="m81.91,37.81h.76c.62-1.11,1.18-1.9,1.69-2.36s1.08-.69,1.72-.69.97.15.97.44c0,.14-.25.52-.76,1.14s-.88,1.14-1.14,1.56c.4.05.75.09,1.06.12s.55.06.73.09c-.67,1.24-1.51,2.51-2.51,3.81-.33-.02-.6-.04-.83-.06s-.45-.04-.68-.05-.51-.04-.83-.06c-.63,1.02-1.16,1.93-1.59,2.73s-.76,1.54-.98,2.21-.34,1.3-.34,1.9c0,.81.32,1.21.97,1.21.45,0,1.03-.24,1.75-.71s1.68-1.2,2.89-2.19v1.18c-3.16,3.43-5.5,5.15-7.01,5.15-.53,0-.95-.21-1.27-.62s-.48-.94-.48-1.58c0-.43.09-.95.27-1.55s.51-1.5.98-2.71c-.16.14-.32.28-.47.41s-.28.26-.4.37-.25.23-.4.35-.28.25-.42.38v-1.21c1.23-1.03,2.72-2.84,4.46-5.43-.18-.01-.34-.02-.49-.03s-.33,0-.54,0c-.69,0-1.21.05-1.55.14-.14.04-.27.07-.4.11s-.21.06-.25.06-.07-.04-.07-.11c0-.39.24-.97.72-1.74.39-.66.75-1.14,1.1-1.46s.77-.53,1.27-.64,1.2-.17,2.1-.17Z"/>
      <path class="cls-1" d="m90.91,37.81h.76c.62-1.11,1.18-1.9,1.69-2.36s1.08-.69,1.72-.69.97.15.97.44c0,.14-.25.52-.76,1.14s-.88,1.14-1.14,1.56c.4.05.75.09,1.06.12s.55.06.73.09c-.67,1.24-1.51,2.51-2.51,3.81-.33-.02-.6-.04-.83-.06s-.45-.04-.68-.05-.51-.04-.83-.06c-.63,1.02-1.16,1.93-1.59,2.73s-.76,1.54-.98,2.21-.34,1.3-.34,1.9c0,.81.32,1.21.97,1.21.45,0,1.03-.24,1.75-.71s1.68-1.2,2.89-2.19v1.18c-3.16,3.43-5.5,5.15-7.01,5.15-.53,0-.95-.21-1.27-.62s-.48-.94-.48-1.58c0-.43.09-.95.27-1.55s.51-1.5.98-2.71c-.16.14-.32.28-.47.41s-.28.26-.4.37-.25.23-.4.35-.28.25-.42.38v-1.21c1.23-1.03,2.72-2.84,4.46-5.43-.18-.01-.34-.02-.49-.03s-.33,0-.54,0c-.69,0-1.21.05-1.55.14-.14.04-.27.07-.4.11s-.21.06-.25.06-.07-.04-.07-.11c0-.39.24-.97.72-1.74.39-.66.75-1.14,1.1-1.46s.77-.53,1.27-.64,1.2-.17,2.1-.17Z"/>
      <path class="cls-1" d="m102.14,46.94v1.28c-1.14,1.46-2.2,2.57-3.18,3.31s-1.82,1.12-2.51,1.12c-.96,0-1.68-.5-2.14-1.51s-.7-2.11-.7-3.3c0-.46.05-.89.14-1.31s.21-.76.33-1.03.37-.69.72-1.27c1.66-2.59,3.19-3.88,4.57-3.88.71,0,1.07.28,1.07.83,0,.38-.23.96-.69,1.76s-.88,1.37-1.24,1.71c-1.02.98-1.68,1.67-2,2.06s-.47.83-.47,1.32c0,.42.16.77.47,1.05s.73.42,1.23.42c.55,0,1.16-.2,1.82-.61s1.52-1.05,2.58-1.94Zm-1.2-7.86c-.29,0-.57-.11-.83-.33s-.4-.5-.4-.84c0-.52.25-1.09.74-1.72s1-.95,1.53-.95c.35,0,.64.11.88.33s.35.53.35.94c0,.5-.24,1.06-.72,1.67s-1,.91-1.55.91Z"/>
    </g>
    <g>
      <path class="cls-3" d="m26.79,91.08v.39c-.26.23-.46.39-.62.47s-.38.11-.67.09c-.51.6-.96.9-1.34.9-.22,0-.42-.07-.6-.22s-.32-.34-.43-.59-.16-.53-.16-.84c0-.25.08-.53.25-.83s.38-.59.64-.85.55-.48.85-.64.58-.24.84-.24c.18,0,.33.03.43.08s.16.14.16.24c0,.08-.04.17-.13.27.15.03.25.08.3.16s.08.2.08.4-.04.42-.13.71-.21.55-.36.8l.11.11h.09c.07,0,.13-.02.2-.05s.12-.07.17-.11.16-.12.33-.25Zm-1.21-1.54c-.32.2-.6.37-.83.53s-.43.32-.59.48-.27.33-.32.49c-.1.44-.15.67-.15.71,0,.26.18.39.54.39.17,0,.45-.14.84-.43-.07-.18-.1-.36-.1-.53,0-.25.05-.5.15-.75s.25-.55.45-.88Z"/>
      <path class="cls-3" d="m30.73,90.04c-.69.77-1.03,1.3-1.03,1.6,0,.17.07.25.21.25.11,0,.26-.06.44-.18s.47-.33.85-.64v.4c-.55.55-.98.94-1.28,1.18s-.54.36-.73.36c-.32,0-.48-.21-.48-.63,0-.12.02-.25.06-.37s.09-.25.16-.38.17-.32.31-.56.3-.52.49-.83c-.22.11-.5.34-.84.67-.22.21-.4.41-.56.6s-.32.4-.49.63-.3.39-.38.47-.16.12-.24.12c-.12,0-.24-.13-.35-.39s-.16-.57-.16-.91c0-.21.02-.38.07-.5s.15-.29.29-.52c.27-.41.5-.72.7-.91s.38-.29.56-.29c.12,0,.23.02.3.06s.11.11.11.2c0,.04-.01.08-.04.12s-.05.08-.08.12-.09.1-.18.21c-.62.68-.93,1.13-.93,1.33,0,.11.04.17.11.17.05,0,.14-.08.27-.23s.31-.35.52-.59.46-.5.76-.76.62-.52.99-.77c.21-.14.38-.22.52-.22.06,0,.12.09.18.26s.09.35.09.52c0,.09-.08.22-.25.39Z"/>
      <path class="cls-3" d="m34.51,91.26v-.14c1.01-1.06,1.7-1.81,2.08-2.23.09-.48.29-.72.62-.72.08,0,.17.02.26.07l.04.11s-.02.11-.02.2c0,.07.03.21.08.41s.1.37.13.51.05.29.05.46c0,.26-.06.5-.18.74s-.29.46-.51.68-.51.44-.86.67c.14.02.25.04.33.04.16,0,.33-.04.52-.12s.38-.19.57-.32.42-.31.68-.52v.39c-.5.49-.95.86-1.34,1.11s-.73.38-1.02.38c-.37,0-.71-.16-1.02-.47-.18-.19-.3-.37-.34-.54s-.07-.4-.07-.7Zm2.19-.9l-.11-.86c-.24.27-.76.8-1.55,1.58.23.05.39.12.48.21s.21.25.36.5c.27-.11.47-.26.61-.45s.21-.45.21-.78c0-.04,0-.07,0-.11s0-.06,0-.09Z"/>
      <path class="cls-3" d="m41.15,86.4s-.02-.04-.05-.04c-.16,0-.24-.08-.24-.24,0-.13.05-.28.15-.45s.23-.32.38-.45.28-.19.39-.19c.16,0,.24.11.24.32s-.08.44-.23.68-.32.45-.51.63-.31.27-.36.27c-.02,0-.04-.01-.04-.04,0-.05.04-.13.12-.24.1-.12.15-.21.15-.25Z"/>
      <path class="cls-3" d="m42.2,91.59v-.41c.55-.59,1.02-1.15,1.42-1.68s.71-.94.94-1.25.43-.53.61-.65.4-.19.66-.19c.13,0,.2.05.2.15,0,.08-.05.2-.16.36s-.25.32-.41.49c-.22.22-.44.49-.65.82s-.45.75-.72,1.26c.21-.16.45-.36.73-.58s.5-.4.67-.53.35-.23.52-.3.34-.11.51-.11c.11,0,.18.02.21.06s.05.12.05.23c0,.3-.07.59-.22.87s-.35.58-.62.88-.6.64-1,1c.14.05.28.08.42.08.45,0,1.06-.35,1.82-1.04v.42c-.3.27-.59.52-.87.75s-.55.42-.8.56-.48.21-.69.21c-.08,0-.16,0-.25-.03s-.17-.04-.24-.06-.17-.06-.29-.11-.21-.08-.27-.1c-.12.03-.2.05-.21.05-.14,0-.3-.05-.48-.16-.13.25-.27.57-.42.97s-.28.71-.39.95-.25.46-.42.67c-.1.1-.17.15-.21.15-.17,0-.25-.15-.25-.45,0-.26.05-.53.16-.81s.23-.54.38-.79.32-.5.5-.76.31-.45.38-.57c.62-1.06,1.1-1.97,1.44-2.71-.9,1.09-1.58,1.88-2.04,2.36Zm2.38.29c.39-.41.67-.75.86-1.04s.28-.5.28-.66-.07-.22-.22-.22c-.2,0-.47.16-.82.48s-.72.76-1.09,1.3c.29-.03.48-.04.58-.03s.23.06.4.16Z"/>
      <path class="cls-3" d="m47.83,90.05c.59-.54,1.17-.94,1.73-1.2s.99-.39,1.29-.39c.08,0,.16.03.23.1s.13.15.17.24.06.16.06.2c0,.07-.03.12-.08.16s-.15.07-.29.12c.03.06.06.14.11.24s.08.18.1.24.04.11.04.16c0,.09-.09.27-.28.52s-.32.44-.4.57-.11.27-.11.45c0,.29.13.43.4.43s.7-.26,1.28-.77v.36c-.99,1.1-1.7,1.65-2.12,1.65-.15,0-.26-.05-.33-.15s-.1-.25-.1-.44c0-.31.11-.76.33-1.34-.57.63-.99,1.08-1.27,1.35s-.51.4-.69.4c-.09,0-.19-.07-.32-.22s-.24-.34-.34-.58-.15-.48-.15-.74c0-.18.02-.34.05-.46s.1-.25.21-.38.26-.3.49-.51Zm2.81-.64c-1.02.46-1.74.86-2.17,1.18s-.65.66-.65,1c0,.12.02.23.06.31s.1.12.18.12c.04,0,.12-.03.23-.08.41-.24.79-.56,1.12-.95s.75-.92,1.22-1.58Z"/>
      <path class="cls-3" d="m54.71,91.32l-1.04.88c-.5.43-.83.65-1,.65-.15,0-.31-.17-.48-.52s-.25-.66-.25-.92c0-.22.03-.41.1-.57s.19-.35.35-.6c.24-.33.47-.61.69-.84s.41-.41.58-.54.29-.19.35-.19c.11,0,.21.05.31.16s.15.22.15.34c0,.07-.05.19-.16.36s-.28.37-.51.62-.56.55-.97.91l-.11.32c-.03.06-.05.12-.05.16,0,.11.05.16.16.16s.37-.14.77-.42.84-.65,1.32-1.12c.18-.18.34-.35.46-.49s.23-.27.33-.4.18-.22.24-.28.12-.1.17-.1c.1-.01.17.03.23.12s.08.23.08.42c0,.11-.05.24-.14.4s-.27.43-.53.81-.51.78-.77,1.18-.52.87-.78,1.38c.01-.01.13-.13.36-.35s.47-.46.72-.7.46-.44.63-.58.37-.32.62-.51v.39c-.53.57-1,1.1-1.43,1.61s-.76.91-.99,1.22-.37.48-.41.53c-.11.14-.2.26-.28.38s-.15.21-.21.28-.1.1-.14.1c-.08,0-.16-.08-.22-.24s-.1-.31-.1-.43c0-.11.02-.21.06-.3.28-.63.91-1.73,1.89-3.3Z"/>
      <path class="cls-3" d="m57.45,91.31v.15c0,.23.06.41.17.54s.26.19.45.19.39-.04.59-.13.41-.21.61-.36.45-.35.74-.6v.36c-.44.53-.86.94-1.24,1.22s-.78.42-1.18.42c-.35,0-.62-.13-.83-.4s-.3-.64-.3-1.11c0-.41.1-.78.29-1.12s.5-.69.94-1.06c.3-.25.59-.45.88-.57s.55-.19.79-.19c.18,0,.33.04.44.13s.16.21.16.38c0,.25-.09.49-.28.74s-.46.49-.84.73-.84.47-1.39.69Zm.06-.38c.35-.14.65-.31.9-.51s.43-.4.55-.58.18-.32.18-.41-.04-.13-.12-.13c-.07,0-.18.04-.34.13s-.32.21-.48.35-.31.31-.44.51-.21.41-.25.64Z"/>
      <path class="cls-3" d="m66.19,91.03v.43c-.82,1.08-1.48,1.62-1.99,1.62-.28,0-.5-.15-.65-.45s-.24-.7-.24-1.19c0-.4.09-.87.28-1.42s.44-1.11.75-1.67.64-1.06.98-1.48.65-.71.94-.88c.12-.07.21-.11.28-.11.08,0,.14.04.16.11s.04.2.04.37c0,.54-.22,1.21-.66,2s-1.06,1.6-1.85,2.42c-.04.2-.06.36-.06.47,0,.25.05.45.16.61s.26.23.45.23c.1,0,.2-.04.32-.11s.23-.17.36-.28.37-.34.73-.67Zm-1.75-1.05c.2-.2.4-.43.59-.68s.37-.53.54-.81.3-.55.4-.78.14-.4.14-.52c0-.09-.03-.13-.09-.13-.02,0-.07.02-.13.06-.24.2-.51.58-.8,1.15s-.51,1.14-.63,1.72Z"/>
      <path class="cls-3" d="m66.82,90.05c.59-.54,1.17-.94,1.73-1.2s.99-.39,1.29-.39c.08,0,.16.03.23.1s.13.15.17.24.06.16.06.2c0,.07-.03.12-.08.16s-.15.07-.29.12c.03.06.06.14.11.24s.08.18.1.24.04.11.04.16c0,.09-.09.27-.28.52s-.32.44-.4.57-.11.27-.11.45c0,.29.13.43.4.43s.7-.26,1.28-.77v.36c-.99,1.1-1.7,1.65-2.12,1.65-.15,0-.26-.05-.33-.15s-.1-.25-.1-.44c0-.31.11-.76.33-1.34-.57.63-.99,1.08-1.27,1.35s-.51.4-.69.4c-.09,0-.19-.07-.32-.22s-.24-.34-.34-.58-.15-.48-.15-.74c0-.18.02-.34.05-.46s.1-.25.21-.38.26-.3.49-.51Zm2.81-.64c-1.02.46-1.74.86-2.17,1.18s-.65.66-.65,1c0,.12.02.23.06.31s.1.12.18.12c.04,0,.12-.03.23-.08.41-.24.79-.56,1.12-.95s.75-.92,1.22-1.58Z"/>
      <path class="cls-3" d="m76.43,88.06h.25c.21-.37.39-.63.56-.79s.36-.23.57-.23.32.05.32.15c0,.05-.08.17-.25.38s-.29.38-.38.52c.13.02.25.03.35.04s.18.02.24.03c-.22.41-.5.84-.84,1.27-.11,0-.2-.01-.28-.02s-.15-.01-.23-.02-.17-.01-.28-.02c-.21.34-.39.64-.53.91s-.25.51-.33.74-.11.43-.11.63c0,.27.11.4.32.4.15,0,.34-.08.58-.24s.56-.4.96-.73v.39c-1.05,1.14-1.83,1.72-2.34,1.72-.18,0-.32-.07-.42-.21s-.16-.31-.16-.53c0-.14.03-.32.09-.52s.17-.5.33-.9c-.05.05-.11.09-.16.14s-.09.09-.13.12-.08.08-.13.12-.09.08-.14.13v-.4c.41-.34.91-.95,1.49-1.81-.06,0-.11,0-.16,0s-.11,0-.18,0c-.23,0-.4.02-.52.05-.05.01-.09.02-.13.04s-.07.02-.08.02-.02-.01-.02-.04c0-.13.08-.32.24-.58.13-.22.25-.38.37-.49s.26-.18.42-.21.4-.06.7-.06Z"/>
      <path class="cls-3" d="m77.31,91.55v-.38c.21-.25.37-.46.48-.64-.12-.04-.22-.1-.27-.16s-.08-.16-.08-.28c0-.14.06-.32.18-.53s.26-.42.43-.6.33-.31.47-.36c.05-.03.11-.04.16-.04.08,0,.12.04.12.11,0,.07-.06.2-.18.4.8-.12,1.31-.19,1.52-.19.08,0,.14,0,.17.02.07.04.12.12.16.25s.06.26.06.39c0,.08-.04.17-.11.27s-.2.24-.37.42c-.21.22-.38.46-.52.73s-.21.46-.21.59c0,.18.11.28.34.28.24,0,.65-.24,1.24-.73v.39c-.32.34-.59.61-.8.8s-.41.35-.59.47-.34.17-.48.17c-.16,0-.3-.08-.41-.23s-.16-.37-.16-.65c0-.17.04-.36.13-.57s.21-.45.38-.7.35-.5.56-.75c-.11.02-.23.05-.37.07s-.28.05-.43.08-.27.05-.35.06c-.24.48-.59.92-1.05,1.32Z"/>
      <path class="cls-3" d="m81.56,90.05c.59-.54,1.17-.94,1.73-1.2s.99-.39,1.29-.39c.08,0,.16.03.23.1s.13.15.17.24.06.16.06.2c0,.07-.03.12-.08.16s-.15.07-.29.12c.03.06.06.14.11.24s.08.18.1.24.04.11.04.16c0,.09-.09.27-.28.52s-.32.44-.4.57-.11.27-.11.45c0,.29.13.43.4.43s.7-.26,1.28-.77v.36c-.99,1.1-1.7,1.65-2.12,1.65-.15,0-.26-.05-.33-.15s-.1-.25-.1-.44c0-.31.11-.76.33-1.34-.57.63-.99,1.08-1.27,1.35s-.51.4-.69.4c-.09,0-.19-.07-.32-.22s-.24-.34-.34-.58-.15-.48-.15-.74c0-.18.02-.34.05-.46s.1-.25.21-.38.26-.3.49-.51Zm2.81-.64c-1.02.46-1.74.86-2.17,1.18s-.65.66-.65,1c0,.12.02.23.06.31s.1.12.18.12c.04,0,.12-.03.23-.08.41-.24.79-.56,1.12-.95s.75-.92,1.22-1.58Z"/>
      <path class="cls-3" d="m88.55,91.1v.43c-.38.49-.73.86-1.06,1.1s-.61.37-.84.37c-.32,0-.56-.17-.71-.5s-.23-.7-.23-1.1c0-.15.02-.3.05-.44s.07-.25.11-.34.12-.23.24-.42c.55-.86,1.06-1.29,1.52-1.29.24,0,.36.09.36.28,0,.12-.08.32-.23.59s-.29.46-.41.57c-.34.33-.56.56-.67.69s-.16.28-.16.44c0,.14.05.26.16.35s.24.14.41.14c.18,0,.39-.07.61-.2s.51-.35.86-.65Zm-.4-2.62c-.1,0-.19-.04-.28-.11s-.13-.17-.13-.28c0-.17.08-.36.25-.57s.33-.32.51-.32c.12,0,.21.04.29.11s.12.18.12.31c0,.17-.08.35-.24.56s-.33.3-.52.3Z"/>
      <path class="cls-3" d="m90.55,88.06h.25c.21-.37.39-.63.56-.79s.36-.23.57-.23.32.05.32.15c0,.05-.08.17-.25.38s-.29.38-.38.52c.13.02.25.03.35.04s.18.02.24.03c-.22.41-.5.84-.84,1.27-.11,0-.2-.01-.28-.02s-.15-.01-.23-.02-.17-.01-.28-.02c-.21.34-.39.64-.53.91s-.25.51-.33.74-.11.43-.11.63c0,.27.11.4.32.4.15,0,.34-.08.58-.24s.56-.4.96-.73v.39c-1.05,1.14-1.83,1.72-2.34,1.72-.18,0-.32-.07-.42-.21s-.16-.31-.16-.53c0-.14.03-.32.09-.52s.17-.5.33-.9c-.05.05-.11.09-.16.14s-.09.09-.13.12-.08.08-.13.12-.09.08-.14.13v-.4c.41-.34.91-.95,1.49-1.81-.06,0-.11,0-.16,0s-.11,0-.18,0c-.23,0-.4.02-.52.05-.05.01-.09.02-.13.04s-.07.02-.08.02-.02-.01-.02-.04c0-.13.08-.32.24-.58.13-.22.25-.38.37-.49s.26-.18.42-.21.4-.06.7-.06Z"/>
      <path class="cls-3" d="m92.43,91.31v.15c0,.23.06.41.17.54s.26.19.45.19.39-.04.59-.13.41-.21.61-.36.45-.35.74-.6v.36c-.44.53-.86.94-1.24,1.22s-.78.42-1.18.42c-.35,0-.62-.13-.83-.4s-.3-.64-.3-1.11c0-.41.1-.78.29-1.12s.5-.69.94-1.06c.3-.25.59-.45.88-.57s.55-.19.79-.19c.18,0,.33.04.44.13s.16.21.16.38c0,.25-.09.49-.28.74s-.46.49-.84.73-.84.47-1.39.69Zm.06-.38c.35-.14.65-.31.9-.51s.43-.4.55-.58.18-.32.18-.41-.04-.13-.12-.13c-.07,0-.18.04-.34.13s-.32.21-.48.35-.31.31-.44.51-.21.41-.25.64Z"/>
    </g>
    <g id="Calque_1-2" data-name="Calque 1-2">
      <path class="cls-1" d="m60.43,12.08c1.62-.04,2.25-.19,3.66.39.2.03-1.27-1.05-2.32-1.08-.84-.03-1.33.39-1.35.7h0Z"/>
      <path class="cls-1" d="m58.24,11.24c.27.28,1.29.9,2.19.85.24-.47.75-.54,1.44-.5.58.06,1.04.2,1.31.32.14.07.74.3.91.57,1.2.6,1.91,1.43,1.99,1.51.39.29.57.34.63.38-.16-.21-3.4-3.48-4.91-3.72-1.66-.33-3.12.29-3.56.59Z"/>
      <path class="cls-1" d="m57.78,11.95s.45.36,1.27.57c.69.17,1.2.1,1.98.04.9-.12,1.1-.4,2.48-.09,1.16.31,2.72,1.59,3.2,1.9-.07,0-.84-.39-1.51-.46-.86-.06-1.43.27-1.85.42-2.32.79-5.31-.61-5.56-2.37Z"/>
    </g>
    <path class="cls-2" d="m27.59,48.16c-.03-.35-.03-.68,0-.97-2.46,2.41-4.72,4.26-6.78,5.52-2.16,1.32-4.08,1.99-5.78,1.99-.79,0-1.46-.18-2.01-.53s-.98-.85-1.27-1.49-.43-1.45-.43-2.41c0-1.66.59-3.59,1.76-5.78s2.63-4.32,4.39-6.37,3.46-3.75,5.13-5.08,2.92-2,3.74-2c.29,0,.51.09.66.27s.22.44.22.78c0,.82-.4,1.87-1.19,3.16s-1.66,2.46-2.61,3.52-1.52,1.6-1.72,1.6c-.07,0-.11-.05-.11-.14,0-.06.06-.22.18-.47s.18-.44.18-.54c0-.07-.04-.11-.12-.11-.16,0-.67.4-1.5,1.19s-1.61,1.66-2.32,2.61-1.06,1.76-1.06,2.43c0,.36.16.69.47.98s.65.43,1.01.43c.54,0,1.42-.48,2.65-1.43s2.51-2.19,3.86-3.7,2.47-3.08,3.38-4.7,1.35-3.1,1.35-4.42c0-.7-.11-1.32-.33-1.86s-.54-.95-.95-1.23-.91-.42-1.49-.42-1.3.15-2.17.44-1.82.74-2.84,1.34-2.16,1.42-3.41,2.47-2.53,2.29-3.81,3.74c-1.24,1.39-2.32,2.72-3.24,3.99s-1.7,2.49-2.33,3.68-1.12,2.37-1.45,3.53-.5,2.27-.5,3.31c0,1.32.23,2.47.69,3.44s1.15,1.7,2.06,2.21,2,.76,3.26.76c1.46,0,2.98-.38,4.55-1.15s3.18-1.86,4.83-3.29c1.56-1.35,3.26-3.05,5.11-5.08,0-.06-.02-.12-.02-.19Z"/>
  </g>
</svg>